<svg width="374" height="236" viewBox="0 0 374 236" fill="none" xmlns="http://www.w3.org/2000/svg">
<path d="M0.723145 12.7802C0.723145 6.22347 6.02785 0.908203 12.5715 0.908203H362.099C368.643 0.908203 373.948 6.22348 373.948 12.7802V223.508C373.948 230.065 368.643 235.38 362.099 235.38H12.5715C6.02785 235.38 0.723145 230.065 0.723145 223.508V12.7802Z" fill="#F4F4F7"/>
<path d="M209.551 32.8144C209.551 31.585 210.546 30.5884 211.773 30.5884H311.003C312.23 30.5884 313.225 31.585 313.225 32.8144V32.8144C313.225 34.0438 312.23 35.0404 311.003 35.0404H211.773C210.546 35.0404 209.551 34.0438 209.551 32.8144V32.8144Z" fill="white"/>
<path d="M181.411 49.1383C181.411 50.3676 182.406 51.3643 183.633 51.3643H336.181C337.408 51.3643 338.402 50.3676 338.402 49.1383V49.1383C338.402 47.9089 337.408 46.9123 336.181 46.9123H183.633C182.406 46.9123 181.411 47.9089 181.411 49.1383V49.1383Z" fill="white"/>
<path d="M181.411 115.918C181.411 117.147 182.406 118.144 183.633 118.144H217.697C218.924 118.144 219.918 117.147 219.918 115.918V115.918C219.918 114.689 218.924 113.692 217.697 113.692H183.633C182.406 113.692 181.411 114.689 181.411 115.918V115.918Z" fill="white"/>
<path d="M181.411 138.178C181.411 139.408 182.406 140.404 183.633 140.404H281.382C282.609 140.404 283.604 139.408 283.604 138.178V138.178C283.604 136.949 282.609 135.952 281.382 135.952H183.633C182.406 135.952 181.411 136.949 181.411 138.178V138.178Z" fill="white"/>
<path d="M181.411 185.666C181.411 186.895 182.406 187.892 183.633 187.892H250.28C251.507 187.892 252.502 186.895 252.502 185.666V185.666C252.502 184.437 251.507 183.44 250.28 183.44H183.633C182.406 183.44 181.411 184.437 181.411 185.666V185.666Z" fill="white"/>
<path d="M181.411 66.2041H196.222V86.9801H181.411V66.2041Z" fill="white"/>
<path d="M216.957 66.2041H231.767V86.9801H216.957V66.2041Z" fill="white"/>
<path d="M288.047 66.2041H302.857V86.9801H288.047V66.2041Z" fill="white"/>
<path d="M323.592 66.2041H338.402V86.9801H323.592V66.2041Z" fill="white"/>
<path d="M252.501 66.2041H267.312V86.9801H252.501V66.2041Z" fill="white"/>
<path d="M199.184 66.2041H213.994V86.9801H199.184V66.2041Z" fill="white"/>
<path d="M234.729 66.2041H249.54V86.9801H234.729V66.2041Z" fill="white"/>
<path d="M270.274 66.2041H285.084V86.9801H270.274V66.2041Z" fill="white"/>
<path d="M305.819 66.2041H320.63V86.9801H305.819V66.2041Z" fill="white"/>
<path fill-rule="evenodd" clip-rule="evenodd" d="M34.7874 61.6537C34.7874 60.0689 36.0721 58.7842 37.6569 58.7842H144.478C146.062 58.7842 147.347 60.0689 147.347 61.6537V190.705C147.347 192.29 146.062 193.575 144.478 193.575H130.409V171.189C130.409 157.322 119.168 146.08 105.301 146.08H74.7697C60.9028 146.08 49.6615 157.322 49.6615 171.189V193.575H37.6569C36.0721 193.575 34.7874 192.29 34.7874 190.705V61.6537ZM115.535 115.207C115.535 128.73 104.595 139.693 91.0986 139.693C77.6025 139.693 66.6617 128.73 66.6617 115.207C66.6617 101.684 77.6025 90.7219 91.0986 90.7219C104.595 90.7219 115.535 101.684 115.535 115.207Z" fill="white"/>
</svg>
