<svg width="375" height="236" viewBox="0 0 375 236" fill="none" xmlns="http://www.w3.org/2000/svg">
<path d="M0.858887 12.748C0.858887 6.19125 6.17548 0.875977 12.7338 0.875977H363.045C369.603 0.875977 374.92 6.19125 374.92 12.748V223.476C374.92 230.033 369.603 235.348 363.045 235.348H12.7338C6.17548 235.348 0.858887 230.033 0.858887 223.476V12.748Z" fill="#F4F4F7"/>
<path d="M216.092 37.2338C216.092 36.0044 217.089 35.0078 218.319 35.0078H338.553C339.782 35.0078 340.779 36.0044 340.779 37.2338V37.2338C340.779 38.4632 339.782 39.4598 338.553 39.4598H218.319C217.089 39.4598 216.092 38.4632 216.092 37.2338V37.2338Z" fill="white"/>
<path d="M196.795 59.4937C196.795 60.7231 197.792 61.7197 199.022 61.7197H338.553C339.782 61.7197 340.779 60.7231 340.779 59.4937V59.4937C340.779 58.2643 339.782 57.2677 338.553 57.2677H199.022C197.792 57.2677 196.795 58.2643 196.795 59.4937V59.4937Z" fill="white"/>
<path d="M303.67 81.754C303.67 82.9834 304.667 83.98 305.896 83.98H338.553C339.782 83.98 340.779 82.9834 340.779 81.754V81.754C340.779 80.5246 339.782 79.528 338.553 79.528H305.896C304.667 79.528 303.67 80.5246 303.67 81.754V81.754Z" fill="white"/>
<path fill-rule="evenodd" clip-rule="evenodd" d="M40.937 27.5879C37.6578 27.5879 34.9995 30.2455 34.9995 33.5239V101.788C34.9995 105.066 37.6578 107.724 40.937 107.724H156.718C159.997 107.724 162.655 105.066 162.655 101.788V33.5239C162.655 30.2455 159.997 27.5879 156.718 27.5879H40.937ZM107.497 80.6656C112.19 80.6656 116.557 79.7709 120.077 78.0935C123.857 76.3043 125.487 75.1301 128.029 72.8935C128.615 72.3344 129.658 72.3344 130.31 72.8935C130.701 73.1172 130.832 73.5086 130.832 73.844C130.832 74.2354 130.636 74.5709 130.31 74.8505C127.442 77.3107 125.617 78.5967 121.706 80.4978C117.665 82.4548 112.776 83.4613 107.497 83.4613C97.7844 83.4613 89.8974 76.3602 89.8974 67.5817C89.8974 58.8032 97.7844 51.7021 107.497 51.7021C108.409 51.7021 109.126 52.3172 109.126 53.1C109.126 53.8827 108.409 54.4978 107.497 54.4978C99.6095 54.4978 93.1565 60.3688 93.1565 67.5817C93.1565 74.7946 99.6095 80.6656 107.497 80.6656ZM74.0582 83.2376C70.9947 78.429 69.4303 73.1731 69.4303 67.6376C69.4303 62.0462 70.7992 57.4054 74.0582 52.0376C74.1886 51.814 74.2538 51.5903 74.2538 51.3667C74.2538 50.8634 73.9279 50.3602 73.3412 50.1366C72.5591 49.8011 71.5162 50.0247 71.1251 50.7516C67.7356 56.4548 66.1712 61.6548 66.1712 67.6376C66.1712 73.6763 67.866 79.3796 71.1902 84.5796C71.6465 85.2505 72.6242 85.5301 73.4064 85.1387C74.1886 84.7473 74.4493 83.9086 74.0582 83.2376ZM96.9371 88.7744C87.8116 85.0281 81.9453 76.8088 81.9453 67.7507C81.9452 55.0023 93.4173 44.6582 107.562 44.7142C112.907 44.7142 117.209 48.5722 117.209 53.3249C117.209 58.0776 112.841 61.9357 107.562 61.9357C104.107 61.9357 101.239 64.5636 101.239 67.7507C101.239 70.9378 104.042 73.5658 107.562 73.5658C113.102 73.5658 118.382 71.6647 122.293 68.3099C125.356 65.6819 127.051 63.1099 128.29 59.14C128.55 58.3572 129.463 57.9099 130.31 58.1335C131.027 58.3013 131.483 58.8604 131.483 59.4755C131.483 59.6432 131.483 59.755 131.418 59.8668C129.984 64.34 128.094 67.2475 124.509 70.2109C119.946 74.069 113.884 76.2497 107.431 76.2497C102.086 76.2497 97.7844 72.3916 97.7844 67.6389C97.7844 62.8862 102.152 59.0281 107.431 59.0281C110.886 59.0281 113.754 56.4002 113.754 53.2131C113.754 50.026 110.951 47.398 107.431 47.398C95.1772 47.398 85.1392 56.512 85.1392 67.6948C85.1392 75.6346 90.2885 82.9034 98.3059 86.2023C100.978 87.2647 104.042 87.8239 107.497 87.8239C110.039 87.8239 114.08 87.6561 119.294 85.9787C120.142 85.6991 121.054 86.0905 121.38 86.8174C121.706 87.5443 121.25 88.3271 120.403 88.6066C116.101 90.0045 111.929 90.6755 107.497 90.6755C103.586 90.6755 100.066 90.0604 96.9371 88.7744ZM88.7241 42.7C84.1614 45.4957 80.6416 49.0182 78.0995 53.2118C72.8198 62.0462 72.8198 73.2849 78.1647 82.1193C80.7068 86.3129 84.2918 89.8914 88.8545 92.6312C89.5715 93.0785 90.6144 92.9107 91.1359 92.2957C91.3314 92.0161 91.4618 91.7365 91.4618 91.457C91.4618 91.0097 91.2011 90.5624 90.81 90.2828C86.6383 87.7667 83.4444 84.5796 81.0979 80.7774C76.2744 72.7258 76.2744 62.4935 81.0327 54.4419C83.3141 50.6398 86.508 47.4527 90.6144 44.9365C91.3314 44.4892 91.527 43.5946 91.0055 42.9795C90.4189 42.3645 89.4411 42.2527 88.7241 42.7ZM121.511 53.8269C121.511 53.1559 121.445 52.0376 121.185 50.9194C120.989 50.1925 121.641 49.4656 122.488 49.2978C123.336 49.1301 124.183 49.6333 124.379 50.4161C124.77 52.0376 124.77 53.4355 124.77 53.8269C124.77 57.1258 123.792 60.0893 121.902 62.4936C118.577 66.6312 113.233 69.1473 107.562 69.1473C106.649 69.1473 105.932 68.5323 105.932 67.7495C105.932 66.9667 106.649 66.3516 107.562 66.3516C112.124 66.3516 116.492 64.3387 119.164 60.928C120.728 58.971 121.511 56.6226 121.511 53.8269Z" fill="white"/>
<path fill-rule="evenodd" clip-rule="evenodd" d="M40.937 119.596C37.6578 119.596 34.9995 122.254 34.9995 125.532V193.796C34.9995 197.075 37.6578 199.732 40.937 199.732H156.718C159.997 199.732 162.655 197.075 162.655 193.796V125.532C162.655 122.254 159.997 119.596 156.718 119.596H40.937ZM111.253 145.124C116.373 145.124 121.137 146.124 124.977 147.999C129.101 149.998 130.879 151.311 133.652 153.81C134.292 154.435 135.43 154.435 136.141 153.81C136.568 153.56 136.71 153.123 136.71 152.748C136.71 152.311 136.497 151.936 136.141 151.623C133.012 148.874 131.021 147.436 126.755 145.311C122.346 143.124 117.013 141.999 111.253 141.999C100.658 141.999 92.0544 149.936 92.0544 159.747C92.0544 169.558 100.658 177.495 111.253 177.495C112.249 177.495 113.031 176.807 113.031 175.933C113.031 175.058 112.249 174.37 111.253 174.37C102.649 174.37 95.6097 167.809 95.6097 159.747C95.6097 151.686 102.649 145.124 111.253 145.124ZM74.7753 142.249C71.4332 147.624 69.7266 153.498 69.7266 159.685C69.7266 165.934 71.2199 171.121 74.7752 177.12C74.9175 177.37 74.9886 177.62 74.9886 177.87C74.9886 178.432 74.633 178.995 73.9931 179.245C73.1398 179.62 72.0021 179.37 71.5754 178.557C67.8778 172.183 66.1712 166.371 66.1712 159.685C66.1712 152.935 68.02 146.561 71.6465 140.75C72.1443 140 73.2109 139.687 74.0642 140.125C74.9175 140.562 75.2019 141.499 74.7753 142.249ZM99.734 136.061C89.7789 140.248 83.3793 149.435 83.3793 159.558C83.3792 173.806 95.8942 185.367 111.324 185.305C117.155 185.305 121.848 180.993 121.848 175.681C121.848 170.369 117.084 166.057 111.324 166.057C107.556 166.057 104.427 163.12 104.427 159.558C104.427 155.996 107.485 153.059 111.324 153.059C117.369 153.059 123.128 155.184 127.395 158.933C130.737 161.87 132.586 164.745 133.937 169.182C134.221 170.057 135.217 170.557 136.141 170.307C136.923 170.119 137.421 169.494 137.421 168.807C137.421 168.62 137.421 168.495 137.35 168.37C135.785 163.37 133.723 160.121 129.812 156.809C124.835 152.497 118.222 150.059 111.182 150.059C105.351 150.059 100.658 154.371 100.658 159.683C100.658 164.995 105.423 169.307 111.182 169.307C114.951 169.307 118.08 172.244 118.08 175.806C118.08 179.368 115.022 182.305 111.182 182.305C97.8141 182.305 86.8635 172.119 86.8635 159.621C86.8635 150.747 92.481 142.623 101.227 138.936C104.143 137.748 107.485 137.124 111.253 137.124C114.027 137.124 118.435 137.311 124.124 139.186C125.048 139.498 126.044 139.061 126.399 138.248C126.755 137.436 126.257 136.561 125.333 136.249C120.64 134.686 116.089 133.936 111.253 133.936C106.987 133.936 103.147 134.624 99.734 136.061ZM90.7744 187.556C85.7969 184.431 81.9571 180.494 79.1839 175.808C73.4242 165.934 73.4242 153.373 79.255 143.499C82.0282 138.812 85.9391 134.813 90.9166 131.751C91.6988 131.251 92.8365 131.438 93.4054 132.126C93.6187 132.438 93.7609 132.751 93.7609 133.063C93.7609 133.563 93.4765 134.063 93.0499 134.375C88.499 137.187 85.0147 140.75 82.4548 144.999C77.1929 153.998 77.1929 165.434 82.3837 174.433C84.8725 178.682 88.3568 182.244 92.8365 185.056C93.6187 185.556 93.832 186.556 93.2632 187.244C92.6232 187.931 91.5566 188.056 90.7744 187.556ZM126.541 175.12C126.541 175.87 126.47 177.12 126.186 178.37C125.973 179.182 126.684 179.995 127.608 180.182C128.532 180.369 129.457 179.807 129.67 178.932C130.097 177.12 130.097 175.558 130.097 175.12C130.097 171.433 129.03 168.121 126.968 165.434C123.342 160.809 117.511 157.997 111.324 157.997C110.329 157.997 109.547 158.685 109.547 159.56C109.547 160.435 110.329 161.122 111.324 161.122C116.302 161.122 121.066 163.372 123.982 167.184C125.688 169.371 126.541 171.996 126.541 175.12Z" fill="white"/>
<path fill-rule="evenodd" clip-rule="evenodd" d="M281.776 111.063C263.125 111.063 248.006 126.178 248.006 144.824C248.006 163.47 263.125 178.585 281.776 178.585C300.426 178.585 315.545 163.47 315.545 144.824C315.545 126.178 300.426 111.063 281.776 111.063ZM244.295 144.824C244.295 124.129 261.076 107.353 281.776 107.353C302.475 107.353 319.256 124.129 319.256 144.824C319.256 165.519 302.475 182.295 281.776 182.295C261.076 182.295 244.295 165.519 244.295 144.824Z" fill="white"/>
<path fill-rule="evenodd" clip-rule="evenodd" d="M281.775 120.129C268.133 120.129 257.074 131.185 257.074 144.824C257.074 158.463 268.133 169.519 281.775 169.519C295.418 169.519 306.477 158.463 306.477 144.824C306.477 131.185 295.418 120.129 281.775 120.129ZM253.363 144.824C253.363 129.136 266.084 116.419 281.775 116.419C297.467 116.419 310.188 129.136 310.188 144.824C310.188 160.512 297.467 173.229 281.775 173.229C266.084 173.229 253.363 160.512 253.363 144.824Z" fill="white"/>
<path d="M279.109 228.237C278.466 214.549 277.824 200.813 278.812 187.126C279.702 174.787 281.975 162.497 286.571 150.979C289.092 144.713 292.354 138.688 296.357 133.194C295.615 133.098 294.874 133.001 294.083 132.905C297.79 142.448 298.828 152.665 298.136 162.835C297.444 173.245 295.022 183.463 292.106 193.488C290.426 199.175 288.598 204.814 286.67 210.404C287.461 210.501 288.301 210.597 289.092 210.742C288.548 200.139 288.054 189.15 291.415 178.932C292.354 176.137 293.589 173.438 295.171 170.884C294.479 170.884 293.737 170.884 293.045 170.884C294.232 173.583 294.232 176.619 293.243 179.366C292.897 180.378 294.182 181.246 295.072 180.716C297.345 179.414 299.668 178.113 301.941 176.812C301.447 176.185 300.953 175.559 300.459 174.932C297.839 177.101 295.912 179.944 294.874 183.174C294.676 183.752 295.072 184.571 295.714 184.668C297.938 185.005 300.113 184.909 302.287 184.378C301.892 183.704 301.496 183.029 301.101 182.354C299.52 183.896 298.136 185.68 297.147 187.608C296.653 188.572 297.493 189.584 298.531 189.391C305.45 188.09 312.221 186.354 318.893 184.137C320.375 183.655 319.782 181.487 318.25 181.824C313.358 182.884 308.761 184.957 304.758 187.897C303.671 188.716 304.264 190.403 305.697 190.114C313.753 188.379 321.907 186.885 330.013 185.535C338.216 184.186 346.42 182.981 354.624 181.872C359.22 181.246 363.866 180.619 368.462 179.993C369.105 179.896 369.5 179.077 369.302 178.499C369.105 177.824 368.462 177.583 367.77 177.679C359.566 178.788 351.412 179.896 343.208 181.101C335.004 182.306 326.8 183.607 318.646 185.101C314.049 185.921 309.503 186.836 304.956 187.8C305.252 188.523 305.598 189.246 305.895 190.017C309.75 187.222 314.099 185.198 318.794 184.186C318.596 183.415 318.349 182.643 318.151 181.872C311.48 184.089 304.709 185.824 297.79 187.126C298.235 187.704 298.729 188.282 299.174 188.909C300.113 187.126 301.299 185.535 302.732 184.137C303.622 183.27 302.683 181.824 301.546 182.113C299.816 182.547 298.037 182.643 296.258 182.402C296.554 182.884 296.851 183.415 297.098 183.896C297.988 181.101 299.717 178.643 302.04 176.715C303.127 175.8 301.744 174.161 300.557 174.836C298.284 176.137 295.961 177.438 293.688 178.739C294.281 179.173 294.874 179.655 295.516 180.089C296.752 176.715 296.505 173.052 295.072 169.775C294.676 168.907 293.391 169.1 292.947 169.775C287.016 179.27 286.028 190.596 286.176 201.44C286.225 204.573 286.374 207.705 286.522 210.79C286.571 212.139 288.499 212.429 288.943 211.127C292.354 201.006 295.665 190.837 297.938 180.378C300.113 170.209 301.398 159.75 300.36 149.388C299.767 143.556 298.482 137.821 296.406 132.327C296.011 131.314 294.775 131.17 294.133 132.037C286.967 141.966 282.272 153.533 279.504 165.437C276.489 178.402 275.748 191.752 275.847 205.006C275.896 212.766 276.242 220.526 276.638 228.237C276.687 229.779 279.158 229.827 279.109 228.237Z" fill="white"/>
</svg>
