<svg width="20" height="21" viewBox="0 0 20 21" fill="none" xmlns="http://www.w3.org/2000/svg">
<path fill-rule="evenodd" clip-rule="evenodd" d="M10.0002 15.0873C9.61778 15.0873 9.30375 15.3921 9.30375 15.7731C9.30375 16.154 9.61778 16.4588 10.0002 16.4588H16.0954C16.4778 16.4588 16.7918 16.154 16.7918 15.7731C16.7918 15.3921 16.4778 15.0873 16.0954 15.0873H10.0002Z" fill="#525B73"/>
<path fill-rule="evenodd" clip-rule="evenodd" d="M14.0637 3.70898C13.4987 3.70898 12.9564 3.9292 12.5562 4.32192L4.09058 12.6292C4.00117 12.7169 3.93751 12.8271 3.90669 12.948L3.22945 15.6064C3.16966 15.8411 3.23995 16.0888 3.41333 16.259C3.58648 16.4289 3.83697 16.4966 4.07332 16.4386L6.78231 15.774C6.90439 15.7441 7.01616 15.6821 7.10555 15.5944L15.5711 7.28711C15.7693 7.09263 15.9267 6.86162 16.0341 6.60721C16.1414 6.3528 16.1968 6.08003 16.1968 5.80451C16.1968 5.52899 16.1414 5.25623 16.0341 5.00181C15.9267 4.7474 15.7693 4.5164 15.5711 4.32192C15.373 4.12745 15.1378 3.97331 14.8792 3.86818C14.6206 3.76306 14.3435 3.70898 14.0637 3.70898ZM14.5879 6.31566L6.25871 14.4891L4.86286 14.8315L5.21067 13.4663L13.5394 5.29336C13.678 5.15731 13.8666 5.08046 14.0637 5.08046C14.1612 5.08046 14.2577 5.09932 14.3477 5.13589C14.4377 5.17247 14.5193 5.22602 14.5879 5.29336C14.6566 5.36071 14.7109 5.44053 14.7479 5.52821C14.7849 5.61588 14.8039 5.70976 14.8039 5.80451C14.8039 5.89927 14.7849 5.99315 14.7479 6.08082C14.7109 6.1685 14.6566 6.24832 14.5879 6.31566Z" fill="#525B73"/>
</svg>
