<svg width="20" height="21" viewBox="0 0 20 21" fill="none" xmlns="http://www.w3.org/2000/svg">
<path fill-rule="evenodd" clip-rule="evenodd" d="M13.625 6C13.625 6.06904 13.681 6.125 13.75 6.125L15.2434 6.12499L16.75 6.125C17.0952 6.125 17.375 6.40482 17.375 6.75C17.375 7.09518 17.0952 7.375 16.75 7.375H15.9483C15.8828 7.375 15.8283 7.42568 15.8237 7.49109L15.1732 16.598C15.1218 17.3175 14.523 17.875 13.8017 17.875H6.19834C5.47696 17.875 4.87823 17.3175 4.82683 16.598L4.17634 7.49109C4.17167 7.42568 4.11724 7.375 4.05166 7.375H3.25C2.90482 7.375 2.625 7.09518 2.625 6.75C2.625 6.40482 2.90482 6.125 3.25 6.125L4.74381 6.12501L6.25 6.125C6.31904 6.125 6.375 6.06904 6.375 6V4.5C6.375 3.74061 6.99061 3.125 7.75 3.125H12.25C13.0094 3.125 13.625 3.74061 13.625 4.5V6ZM12.25 6.125C12.319 6.125 12.375 6.06904 12.375 6V4.5C12.375 4.43096 12.319 4.375 12.25 4.375H7.75C7.68096 4.375 7.625 4.43096 7.625 4.5V6C7.625 6.06904 7.68096 6.125 7.75 6.125H12.25ZM6.07366 16.5089C6.07833 16.5743 6.13276 16.625 6.19834 16.625H13.8017C13.8672 16.625 13.9217 16.5743 13.9263 16.5089L14.5692 7.50891C14.5717 7.47429 14.5596 7.44021 14.536 7.41482C14.5124 7.38942 14.4792 7.375 14.4445 7.375H5.55548C5.52078 7.375 5.48765 7.38942 5.464 7.41482C5.44035 7.44021 5.42833 7.47429 5.4308 7.50891L6.07366 16.5089Z" fill="#525B73"/>
</svg>
