<?xml version="1.0" encoding="utf-8"?>
<!-- Generator: Adobe Illustrator 17.0.0, SVG Export Plug-In . SVG Version: 6.00 Build 0)  -->
<!DOCTYPE svg PUBLIC "-//W3C//DTD SVG 1.1//EN" "http://www.w3.org/Graphics/SVG/1.1/DTD/svg11.dtd">
<svg version="1.1" id="Layer_2" xmlns="http://www.w3.org/2000/svg" xmlns:xlink="http://www.w3.org/1999/xlink" x="0px" y="0px"
	 width="215.789px" height="43px" viewBox="0 0 215.789 43" enable-background="new 0 0 215.789 43" xml:space="preserve">
<g>
	<g>
		<g>
			<g>
				<path fill="#0068A6" d="M9.211,30.284c-1.743,0-3.4-0.302-4.971-0.905c-1.571-0.604-2.932-1.531-4.084-2.781l3.603-3.567
					c0.896,0.85,1.85,1.525,2.861,2.026c1.011,0.501,2.171,0.752,3.478,0.752c1.046,0,1.89-0.19,2.535-0.571
					c0.644-0.38,1.026-0.908,1.145-1.582l0.012-0.065c0.057-0.326,0.048-0.613-0.027-0.864c-0.076-0.25-0.263-0.484-0.562-0.701
					c-0.3-0.218-0.73-0.435-1.29-0.653c-0.561-0.217-1.299-0.446-2.216-0.685c-1.105-0.282-2.095-0.597-2.97-0.946
					c-0.875-0.348-1.595-0.777-2.158-1.289c-0.563-0.511-0.958-1.147-1.183-1.909c-0.225-0.761-0.238-1.707-0.039-2.838l0.011-0.065
					c0.184-1.044,0.544-1.984,1.081-2.821c0.537-0.837,1.211-1.56,2.022-2.169C7.27,8.04,8.193,7.573,9.227,7.247
					c1.034-0.326,2.139-0.49,3.316-0.49c1.677,0,3.174,0.253,4.49,0.757c1.316,0.505,2.479,1.229,3.489,2.172l-3.284,3.802
					c-0.901-0.697-1.806-1.247-2.715-1.65c-0.909-0.403-1.854-0.604-2.834-0.604c-0.98,0-1.749,0.19-2.306,0.571
					c-0.557,0.381-0.886,0.854-0.985,1.419l-0.012,0.065c-0.065,0.369-0.051,0.691,0.043,0.962c0.094,0.272,0.306,0.516,0.638,0.734
					c0.332,0.218,0.802,0.424,1.41,0.62c0.608,0.196,1.379,0.424,2.314,0.685c1.101,0.304,2.07,0.647,2.907,1.028
					c0.836,0.381,1.519,0.837,2.046,1.37c0.527,0.533,0.885,1.158,1.074,1.876c0.189,0.718,0.196,1.576,0.02,2.577l-0.012,0.065
					c-0.199,1.131-0.583,2.137-1.149,3.017c-0.567,0.881-1.271,1.62-2.112,2.218c-0.842,0.599-1.8,1.055-2.876,1.371
					C11.611,30.126,10.453,30.284,9.211,30.284z"/>
				<path fill="#0068A6" d="M24.667,30.284c-1.895,0-3.259-0.577-4.089-1.732c-0.831-1.154-1.068-2.745-0.711-4.771l1.999-11.339
					h4.967l-1.727,9.794c-0.208,1.179-0.103,2.069,0.314,2.67c0.417,0.6,1.104,0.901,2.063,0.901c0.958,0,1.768-0.3,2.43-0.901
					c0.661-0.601,1.096-1.491,1.304-2.67l1.727-9.794h4.967l-3.088,17.515h-4.967l0.434-2.463c-0.348,0.368-0.721,0.72-1.117,1.054
					c-0.397,0.335-0.825,0.633-1.285,0.893c-0.46,0.259-0.954,0.465-1.481,0.616C25.878,30.208,25.298,30.284,24.667,30.284z"/>
				<path fill="#0068A6" d="M39.739,12.442h4.967l-0.434,2.463c0.348-0.368,0.72-0.719,1.117-1.054
					c0.397-0.335,0.825-0.632,1.285-0.892c0.459-0.259,0.953-0.465,1.481-0.616c0.528-0.151,1.107-0.227,1.739-0.227
					c1.895,0,3.258,0.577,4.09,1.732c0.831,1.155,1.068,2.745,0.711,4.771l-1.999,11.339h-4.967l1.727-9.794
					c0.208-1.179,0.103-2.069-0.314-2.669c-0.417-0.601-1.105-0.902-2.063-0.902c-0.959,0-1.769,0.301-2.43,0.902
					c-0.661,0.6-1.096,1.49-1.304,2.669l-1.727,9.794h-4.967L39.739,12.442z"/>
				<path fill="#0068A6" d="M60.479,30.284c-1.242,0-2.474-0.212-3.694-0.637c-1.221-0.425-2.339-1.094-3.354-2.009l2.7-3.268
					c0.835,0.697,1.696,1.22,2.583,1.568c0.886,0.349,1.743,0.523,2.571,0.523c0.719,0,1.268-0.12,1.648-0.359
					c0.38-0.239,0.605-0.556,0.674-0.948l0.012-0.065c0.046-0.262-0.012-0.49-0.173-0.686c-0.162-0.196-0.399-0.365-0.711-0.507
					c-0.313-0.141-0.676-0.278-1.088-0.408c-0.413-0.131-0.846-0.272-1.297-0.425c-0.579-0.174-1.157-0.387-1.734-0.637
					c-0.577-0.25-1.08-0.577-1.51-0.98c-0.43-0.403-0.751-0.899-0.963-1.487c-0.212-0.588-0.243-1.307-0.094-2.157l0.011-0.065
					c0.157-0.893,0.465-1.683,0.924-2.369c0.458-0.686,1.019-1.269,1.681-1.748c0.661-0.479,1.4-0.838,2.216-1.078
					c0.815-0.24,1.67-0.36,2.563-0.36c1.111,0,2.207,0.18,3.287,0.539c1.08,0.359,2.044,0.855,2.891,1.487l-2.5,3.431
					c-0.783-0.501-1.563-0.898-2.338-1.193c-0.776-0.294-1.48-0.441-2.112-0.441c-0.61,0-1.088,0.114-1.433,0.343
					c-0.346,0.228-0.549,0.518-0.61,0.866l-0.011,0.065c-0.042,0.24,0.018,0.452,0.182,0.637c0.163,0.185,0.394,0.36,0.692,0.523
					c0.298,0.163,0.646,0.322,1.044,0.474c0.398,0.153,0.823,0.305,1.275,0.457c0.575,0.196,1.154,0.431,1.739,0.703
					c0.583,0.273,1.091,0.604,1.523,0.997c0.432,0.392,0.761,0.871,0.988,1.438c0.227,0.567,0.269,1.253,0.127,2.059l-0.012,0.065
					c-0.173,0.981-0.491,1.825-0.953,2.533c-0.463,0.708-1.039,1.291-1.73,1.748c-0.691,0.458-1.464,0.801-2.322,1.029
					C62.312,30.169,61.415,30.284,60.479,30.284z"/>
				<path fill="#0068A6" d="M72.392,6.083h4.967l-1.556,8.822c0.348-0.368,0.72-0.719,1.117-1.054
					c0.397-0.335,0.825-0.632,1.285-0.892c0.459-0.259,0.953-0.465,1.481-0.616c0.528-0.151,1.107-0.227,1.739-0.227
					c1.895,0,3.258,0.577,4.09,1.732c0.831,1.155,1.068,2.745,0.711,4.771l-1.999,11.339h-4.967l1.727-9.794
					c0.208-1.179,0.103-2.069-0.314-2.669c-0.417-0.601-1.105-0.902-2.063-0.902c-0.959,0-1.769,0.301-2.43,0.902
					c-0.661,0.6-1.096,1.49-1.304,2.669l-1.727,9.794h-4.967L72.392,6.083z"/>
				<path fill="#0068A6" d="M89.242,12.442h4.967L91.12,29.957h-4.967L89.242,12.442z M90.229,6.104h5.228l-0.778,4.411h-5.228
					L90.229,6.104z"/>
				<path fill="#0068A6" d="M96.267,12.442h4.967l-0.434,2.463c0.348-0.368,0.72-0.719,1.117-1.054
					c0.397-0.335,0.825-0.632,1.285-0.892c0.459-0.259,0.953-0.465,1.481-0.616c0.528-0.151,1.107-0.227,1.739-0.227
					c1.895,0,3.258,0.577,4.09,1.732c0.831,1.155,1.068,2.745,0.711,4.771l-1.999,11.339h-4.967l1.727-9.794
					c0.208-1.179,0.103-2.069-0.314-2.669c-0.417-0.601-1.105-0.902-2.063-0.902c-0.959,0-1.769,0.301-2.43,0.902
					c-0.661,0.6-1.096,1.49-1.304,2.669l-1.727,9.794h-4.967L96.267,12.442z"/>
				<path fill="#0068A6" d="M119.152,30.349c-1.307,0-2.483-0.218-3.528-0.653c-1.045-0.435-1.905-1.056-2.58-1.862
					c-0.675-0.806-1.144-1.759-1.407-2.859c-0.264-1.1-0.276-2.325-0.038-3.676l0.011-0.065c0.219-1.242,0.639-2.418,1.259-3.529
					c0.621-1.111,1.385-2.08,2.294-2.908c0.908-0.828,1.933-1.481,3.074-1.96c1.141-0.479,2.354-0.719,3.64-0.719
					c1.459,0,2.677,0.261,3.652,0.784c0.975,0.523,1.739,1.225,2.291,2.108c0.552,0.882,0.896,1.895,1.033,3.039
					c0.136,1.144,0.094,2.336-0.124,3.578c-0.035,0.196-0.077,0.404-0.126,0.621c-0.05,0.218-0.106,0.447-0.17,0.686h-12.188
					c0.04,1.133,0.385,1.988,1.035,2.565c0.65,0.578,1.53,0.866,2.641,0.866c0.828,0,1.593-0.142,2.297-0.425
					c0.703-0.283,1.459-0.74,2.268-1.373l2.399,2.516c-1.009,1.024-2.152,1.825-3.43,2.402
					C122.176,30.06,120.742,30.349,119.152,30.349z M124.209,19.827c0.043-1.111-0.19-2.009-0.701-2.696
					c-0.511-0.686-1.289-1.029-2.335-1.029c-1.046,0-1.95,0.338-2.711,1.013c-0.762,0.675-1.34,1.58-1.736,2.712H124.209z"/>
			</g>
		</g>
		<path fill="#F7941E" d="M133.312,7.069h5.417l4.298,9.672l7.709-9.672h5.416l-2.76,15.652l-6.24,7.221l2.633-14.933l-8.144,9.77
			h-0.131l-4.65-9.672l-2.616,14.835h-4.967L133.312,7.069z"/>
		<path fill="#F7941E" d="M176.331,7.069h10.456c2.897,0,4.983,0.774,6.257,2.32c1.077,1.307,1.423,3.05,1.039,5.228l-0.012,0.065
			c-0.326,1.852-1.045,3.361-2.154,4.526c-1.11,1.166-2.442,2.021-3.998,2.565l4.147,8.169h-5.881l-3.611-7.319h-3.953l-1.291,7.319
			h-5.032L176.331,7.069z M184.507,18.146c1.242,0,2.246-0.293,3.014-0.878c0.767-0.585,1.238-1.366,1.41-2.341l0.012-0.065
			c0.191-1.083-0.014-1.897-0.616-2.438c-0.602-0.542-1.523-0.813-2.765-0.813h-5l-1.152,6.535H184.507z"/>
		<path fill="#F7941E" d="M201.578,11.709h-6.96l0.819-4.64h18.952l-0.819,4.64h-6.96l-3.215,18.233h-5.032L201.578,11.709z"/>
		<polyline fill="#FDB940" points="175.605,0 167.535,42.69 160.067,29.398 		"/>
		<polygon fill="#F7941E" points="175.605,0 138.094,42.69 160.067,29.398 		"/>
	</g>
	<g>
		<g>
			<path fill="#58595B" d="M1.552,39.644H1.039l0.168-0.952H1.72l0.342-1.938h1.868c0.374,0,0.706,0.061,0.997,0.184
				c0.291,0.123,0.53,0.293,0.717,0.51c0.187,0.218,0.317,0.474,0.388,0.768c0.071,0.294,0.077,0.613,0.016,0.955l-0.002,0.014
				c-0.06,0.343-0.178,0.663-0.354,0.959c-0.175,0.296-0.395,0.553-0.659,0.771c-0.264,0.218-0.564,0.389-0.898,0.514
				c-0.334,0.125-0.689,0.188-1.063,0.188H1.204L1.552,39.644z M3.242,40.652c0.214,0,0.417-0.035,0.607-0.104
				c0.19-0.069,0.359-0.169,0.508-0.299c0.148-0.129,0.273-0.282,0.375-0.459c0.102-0.176,0.172-0.373,0.21-0.59l0.003-0.014
				c0.038-0.213,0.037-0.41-0.002-0.59C4.903,38.415,4.833,38.26,4.73,38.13C4.627,38,4.494,37.9,4.328,37.828
				c-0.165-0.072-0.355-0.108-0.569-0.108H2.931L2.76,38.693H3.8l-0.168,0.952h-1.04l-0.178,1.007H3.242z"/>
			<path fill="#58595B" d="M8.059,42.083h0.978L8.876,43H7.898L8.059,42.083z M8.965,36.754h1.054l-0.858,4.863H8.107L8.965,36.754z
				"/>
			<path fill="#58595B" d="M14.369,36.72h0.972l1.189,4.898h-1.101l-0.246-1.091h-2.025l-0.63,1.091h-1.074L14.369,36.72z
				 M14.974,39.575l-0.358-1.577l-0.914,1.577H14.974z"/>
			<path fill="#58595B" d="M24.56,41.701c-0.351,0-0.666-0.065-0.944-0.194c-0.278-0.13-0.507-0.307-0.686-0.531
				c-0.179-0.225-0.304-0.49-0.373-0.796s-0.073-0.632-0.012-0.979l0.003-0.014c0.061-0.347,0.18-0.673,0.357-0.976
				c0.177-0.303,0.395-0.57,0.654-0.799c0.259-0.229,0.553-0.41,0.882-0.542c0.329-0.132,0.678-0.198,1.048-0.198
				c0.223,0,0.424,0.019,0.602,0.056c0.178,0.037,0.337,0.088,0.476,0.153c0.139,0.065,0.264,0.144,0.376,0.236
				c0.111,0.093,0.212,0.194,0.302,0.306l-0.809,0.785c-0.157-0.171-0.324-0.306-0.5-0.403c-0.177-0.097-0.386-0.146-0.628-0.146
				c-0.201,0-0.393,0.039-0.578,0.118c-0.185,0.079-0.351,0.187-0.499,0.327c-0.148,0.139-0.272,0.3-0.372,0.483
				c-0.101,0.183-0.169,0.379-0.206,0.587l-0.002,0.014c-0.037,0.209-0.037,0.405-0.001,0.59c0.036,0.185,0.102,0.348,0.198,0.486
				c0.096,0.139,0.223,0.249,0.38,0.33c0.157,0.081,0.338,0.122,0.543,0.122c0.274,0,0.514-0.051,0.721-0.153
				c0.207-0.102,0.42-0.241,0.638-0.417l0.549,0.688c-0.147,0.134-0.296,0.255-0.447,0.361c-0.151,0.107-0.312,0.198-0.483,0.275
				c-0.171,0.076-0.353,0.134-0.547,0.174C25.006,41.681,24.793,41.701,24.56,41.701z"/>
			<path fill="#58595B" d="M29.743,36.754h1.054l-0.339,1.924H32.4l0.339-1.924h1.054l-0.858,4.863h-1.054l0.344-1.952h-1.943
				l-0.344,1.952h-1.054L29.743,36.754z"/>
			<path fill="#58595B" d="M36.495,36.754h1.054l-0.858,4.863h-1.054L36.495,36.754z M36.893,35.622
				c0.152-0.009,0.271-0.037,0.357-0.083c0.086-0.046,0.14-0.135,0.163-0.264c0.004-0.023-0.005-0.052-0.026-0.087
				c-0.021-0.035-0.062-0.052-0.121-0.052c-0.041,0-0.1,0.022-0.176,0.066c-0.076,0.044-0.148,0.127-0.215,0.247l-0.477-0.285
				c0.088-0.139,0.174-0.252,0.258-0.341c0.084-0.088,0.168-0.156,0.252-0.205c0.084-0.049,0.166-0.081,0.246-0.097
				c0.08-0.016,0.162-0.024,0.244-0.024c0.237,0,0.418,0.073,0.543,0.219c0.125,0.146,0.166,0.328,0.123,0.545
				c-0.044,0.222-0.125,0.39-0.243,0.504c-0.118,0.113-0.246,0.195-0.382,0.246l-0.08,0.299h-0.527L36.893,35.622z"/>
			<path fill="#58595B" d="M43.809,36.754h1.134l0.894,2.056l1.62-2.056h1.134l-0.858,4.863h-1.04l0.56-3.175l-1.711,2.077h-0.027
				l-0.968-2.056l-0.556,3.154h-1.04L43.809,36.754z"/>
			<path fill="#58595B" d="M52.379,41.694c-0.643,0-1.117-0.181-1.423-0.542c-0.306-0.361-0.395-0.901-0.269-1.619l0.49-2.779h1.054
				l-0.485,2.751c-0.07,0.399-0.032,0.698,0.115,0.9c0.147,0.202,0.382,0.302,0.706,0.302c0.324,0,0.594-0.098,0.811-0.292
				c0.217-0.194,0.359-0.486,0.428-0.876l0.491-2.786h1.054l-0.484,2.744c-0.065,0.37-0.171,0.692-0.317,0.965
				c-0.146,0.273-0.327,0.501-0.541,0.684c-0.215,0.183-0.46,0.32-0.736,0.41C52.996,41.649,52.699,41.694,52.379,41.694z"/>
			<path fill="#58595B" d="M59.407,36.72h0.972l1.189,4.898h-1.101l-0.246-1.091h-2.025l-0.63,1.091h-1.074L59.407,36.72z
				 M60.012,39.575l-0.358-1.577l-0.914,1.577H60.012z"/>
			<path fill="#58595B" d="M69.06,41.687c-0.365,0-0.712-0.064-1.04-0.193c-0.329-0.128-0.613-0.325-0.854-0.591l0.756-0.758
				c0.187,0.18,0.386,0.324,0.598,0.431c0.212,0.107,0.454,0.16,0.728,0.16c0.219,0,0.396-0.041,0.531-0.121
				c0.135-0.081,0.215-0.193,0.241-0.336l0.002-0.014c0.012-0.069,0.01-0.13-0.005-0.184c-0.016-0.053-0.055-0.103-0.117-0.149
				c-0.063-0.046-0.152-0.093-0.27-0.139c-0.117-0.046-0.272-0.095-0.464-0.146c-0.231-0.06-0.438-0.127-0.621-0.201
				c-0.183-0.074-0.333-0.165-0.451-0.274c-0.118-0.108-0.2-0.244-0.247-0.405c-0.047-0.162-0.049-0.363-0.006-0.603l0.002-0.014
				c0.039-0.222,0.115-0.422,0.228-0.6c0.113-0.178,0.254-0.332,0.425-0.461c0.17-0.129,0.364-0.229,0.58-0.298
				c0.217-0.069,0.448-0.104,0.694-0.104c0.351,0,0.665,0.054,0.94,0.161c0.275,0.107,0.518,0.262,0.729,0.462l-0.69,0.808
				c-0.188-0.148-0.377-0.265-0.568-0.351c-0.19-0.086-0.388-0.129-0.593-0.129c-0.205,0-0.366,0.041-0.483,0.121
				c-0.117,0.081-0.186,0.182-0.207,0.302l-0.002,0.014c-0.014,0.078-0.011,0.147,0.008,0.205c0.019,0.058,0.064,0.11,0.133,0.156
				c0.069,0.046,0.168,0.09,0.295,0.132c0.127,0.042,0.289,0.09,0.484,0.146c0.23,0.065,0.433,0.138,0.608,0.218
				c0.175,0.081,0.317,0.178,0.427,0.291c0.11,0.113,0.185,0.246,0.224,0.399c0.039,0.153,0.04,0.335,0.003,0.548l-0.002,0.014
				c-0.042,0.241-0.123,0.454-0.242,0.642c-0.119,0.187-0.267,0.344-0.443,0.471c-0.177,0.127-0.378,0.224-0.603,0.291
				C69.563,41.653,69.32,41.687,69.06,41.687z"/>
			<path fill="#58595B" d="M75.758,36.72h0.972l1.189,4.898h-1.101l-0.246-1.091h-2.025l-0.63,1.091h-1.074L75.758,36.72z
				 M76.363,39.575l-0.358-1.577l-0.914,1.577H76.363z M76.31,36.386c-0.365,0-0.646-0.096-0.842-0.288
				c-0.197-0.192-0.28-0.464-0.249-0.816h0.698c0.019,0.125,0.066,0.226,0.142,0.302c0.075,0.076,0.2,0.115,0.373,0.115
				s0.311-0.038,0.414-0.115c0.102-0.076,0.185-0.177,0.248-0.302h0.698c-0.094,0.352-0.273,0.624-0.537,0.816
				C76.989,36.29,76.675,36.386,76.31,36.386z M77.05,34.052l0.826,0.396l-1.036,0.834h-0.766L77.05,34.052z"/>
			<path fill="#58595B" d="M81.02,36.754h1.134l0.894,2.056l1.62-2.056h1.134l-0.858,4.863h-1.04l0.56-3.175l-1.711,2.077h-0.027
				l-0.968-2.056l-0.556,3.154h-1.04L81.02,36.754z"/>
			<path fill="#58595B" d="M92.963,37.741h-1.457l0.174-0.987h3.968l-0.174,0.987h-1.457l-0.684,3.876h-1.054L92.963,37.741z"/>
			<path fill="#58595B" d="M98.008,36.754h1.054l-0.858,4.863H97.15L98.008,36.754z"/>
			<path fill="#58595B" d="M101.764,36.754h0.972l1.716,2.994l0.528-2.994h1.04l-0.858,4.863h-0.896l-1.774-3.092l-0.545,3.092
				h-1.04L101.764,36.754z"/>
			<path fill="#58595B" d="M113.603,41.701c-0.351,0-0.666-0.065-0.944-0.194c-0.278-0.13-0.507-0.307-0.686-0.531
				c-0.179-0.225-0.304-0.49-0.373-0.796s-0.073-0.632-0.012-0.979l0.003-0.014c0.061-0.347,0.18-0.673,0.357-0.976
				c0.177-0.303,0.395-0.57,0.654-0.799c0.259-0.229,0.553-0.41,0.882-0.542c0.329-0.132,0.678-0.198,1.048-0.198
				c0.223,0,0.424,0.019,0.602,0.056c0.178,0.037,0.337,0.088,0.476,0.153c0.139,0.065,0.264,0.144,0.376,0.236
				c0.111,0.093,0.212,0.194,0.302,0.306l-0.809,0.785c-0.157-0.171-0.324-0.306-0.5-0.403c-0.177-0.097-0.386-0.146-0.628-0.146
				c-0.201,0-0.393,0.039-0.578,0.118c-0.185,0.079-0.351,0.187-0.499,0.327c-0.148,0.139-0.272,0.3-0.372,0.483
				c-0.101,0.183-0.169,0.379-0.206,0.587l-0.002,0.014c-0.037,0.209-0.037,0.405-0.001,0.59c0.036,0.185,0.102,0.348,0.198,0.486
				c0.096,0.139,0.223,0.249,0.38,0.33c0.157,0.081,0.338,0.122,0.543,0.122c0.274,0,0.514-0.051,0.721-0.153
				c0.207-0.102,0.42-0.241,0.638-0.417l0.549,0.688c-0.147,0.134-0.296,0.255-0.447,0.361c-0.151,0.107-0.312,0.198-0.483,0.275
				c-0.171,0.076-0.353,0.134-0.547,0.174C114.049,41.681,113.836,41.701,113.603,41.701z"/>
			<path fill="#58595B" d="M120.434,36.72h0.972l1.189,4.898h-1.101l-0.246-1.091h-2.025l-0.63,1.091h-1.074L120.434,36.72z
				 M119.433,42.083h0.978L120.25,43h-0.978L119.433,42.083z M120.687,35.247h0.985l0.649,1.091h-0.801l-0.46-0.459l-0.621,0.459
				h-0.787L120.687,35.247z M121.039,39.575l-0.358-1.577l-0.914,1.577H121.039z"/>
			<path fill="#58595B" d="M126.524,39.7l-1.321-2.946h1.232l0.798,1.952l1.507-1.952h1.197l-2.356,2.925l-0.342,1.938h-1.054
				L126.524,39.7z"/>
		</g>
	</g>
</g>
</svg>
